<?xml version="1.0" encoding="utf-8"?>
<!-- Generator: Adobe Illustrator 15.0.0, SVG Export Plug-In . SVG Version: 6.00 Build 0)  -->
<!DOCTYPE svg PUBLIC "-//W3C//DTD SVG 1.1//EN" "http://www.w3.org/Graphics/SVG/1.1/DTD/svg11.dtd">
<svg version="1.1" id="Capa_1" xmlns="http://www.w3.org/2000/svg" xmlns:xlink="http://www.w3.org/1999/xlink" x="0px" y="0px"
	 width="64px" height="64px" viewBox="0 0 64 64" enable-background="new 0 0 64 64" xml:space="preserve">
<g>
	<path fill="#1A171B" d="M19.03,22.575h-0.946c-0.211,0-0.231,0.155-0.26,0.347c-0.077,0.464-0.492,0.656-1.012,0.656
		c-0.014,0-0.026-0.001-0.039-0.001c-0.014,0-0.026,0.001-0.039,0.001c-0.524,0-0.942-0.192-1.019-0.656
		c-0.01-0.06-0.019-0.114-0.031-0.162v-0.458h0.003c0.006-0.131,0.048-0.261,0.136-0.385c0.036-0.049,0.069-0.093,0.094-0.137
		l0.782-1.155l0.02-0.02h-0.003c0.042-0.048,0.06-0.116,0.06-0.203v-0.404c0-0.174-0.059-0.28-0.281-0.28h-3.094
		c-0.222,0-0.28,0.106-0.28,0.28v0.404c0,0.092,0.018,0.165,0.066,0.212h-0.001l0.007,0.008l0.002,0.002l0.788,1.156
		c0.025,0.044,0.059,0.088,0.094,0.137c0.084,0.117,0.125,0.238,0.134,0.361v0.518c-0.009,0.04-0.015,0.082-0.021,0.126
		c-0.077,0.464-0.492,0.656-1.012,0.656c-0.013,0-0.026-0.001-0.039-0.001c-0.013,0-0.025,0.001-0.039,0.001
		c-0.524,0-0.941-0.192-1.019-0.656c-0.029-0.192-0.048-0.347-0.261-0.347h-0.952c-0.213,0-0.291,0.097-0.291,0.329
		c0,1.243,1.32,2.024,2.523,2.024c0.013,0,0.026-0.001,0.039-0.001c0.012,0,0.026,0.001,0.039,0.001
		c0.628,0,1.287-0.217,1.772-0.603c0.488,0.386,1.151,0.603,1.785,0.603c0.013,0,0.026-0.001,0.039-0.001s0.025,0.001,0.039,0.001
		c1.195,0,2.507-0.781,2.507-2.024C19.319,22.672,19.242,22.575,19.03,22.575"/>
	<path fill="#1A171B" d="M15.624,32.051c0,1.325-0.877,2.202-2.507,2.202h-0.915v1.583c0,0.219-0.105,0.275-0.277,0.275h-0.943
		c-0.171,0-0.277-0.057-0.277-0.275v-5.72c0-0.171,0.058-0.276,0.277-0.276h2.145C14.766,29.84,15.624,30.736,15.624,32.051
		 M14.185,32.08c0-0.496-0.324-0.896-1.067-0.896h-0.915v1.782h0.915C13.861,32.966,14.185,32.556,14.185,32.08"/>
	<path fill="#1A171B" d="M21.352,36.111h-1.001c-0.209,0-0.286-0.057-0.362-0.285l-0.267-0.754h-2.335l-0.268,0.754
		c-0.076,0.229-0.152,0.285-0.362,0.285h-1.001c-0.209,0-0.209-0.152-0.162-0.267l2.116-5.709c0.076-0.2,0.181-0.295,0.391-0.295
		h0.915c0.209,0,0.305,0.096,0.391,0.295l2.106,5.709C21.562,35.959,21.562,36.111,21.352,36.111 M19.274,33.738l-0.715-2.106
		l-0.715,2.106H19.274z"/>
	<path fill="#1A171B" d="M26.002,30.116v0.791c0,0.171-0.057,0.277-0.276,0.277h-1.458v4.651c0,0.22-0.104,0.276-0.276,0.276h-0.944
		c-0.171,0-0.276-0.057-0.276-0.276v-4.651h-1.468c-0.219,0-0.276-0.105-0.276-0.277v-0.791c0-0.171,0.057-0.276,0.276-0.276h4.423
		C25.945,29.84,26.002,29.945,26.002,30.116"/>
	<path fill="#1A171B" d="M31.121,36.111h-1c-0.21,0-0.286-0.057-0.362-0.285l-0.267-0.754h-2.335l-0.267,0.754
		c-0.076,0.229-0.152,0.285-0.362,0.285h-1.001c-0.209,0-0.209-0.152-0.161-0.267l2.115-5.709c0.077-0.2,0.181-0.295,0.391-0.295
		h0.915c0.209,0,0.305,0.096,0.391,0.295l2.106,5.709C31.331,35.959,31.331,36.111,31.121,36.111 M29.043,33.738l-0.715-2.106
		l-0.715,2.106H29.043z"/>
	<path fill="#1A171B" d="M36.4,34.253c0,1.354-1.066,2.002-2.535,2.002c-1.191,0-2.564-0.687-2.564-2.021
		c0-0.22,0.057-0.268,0.276-0.268h0.925c0.219,0,0.324,0.029,0.343,0.268c0.009,0.124,0.057,0.247,0.181,0.391
		c0.19,0.229,0.582,0.314,0.935,0.314c0.515,0,0.935-0.114,0.935-0.648c0-0.533-0.849-0.543-1.659-0.801
		c-0.962-0.305-1.849-0.686-1.849-1.896c0-1.239,1.125-1.849,2.316-1.896c1.211,0,2.535,0.553,2.535,1.811
		c0,0.229-0.057,0.267-0.276,0.267h-0.934c-0.181,0-0.21-0.134-0.257-0.257c-0.039-0.095-0.087-0.172-0.201-0.286
		c-0.181-0.171-0.523-0.257-0.811-0.257c-0.313,0-0.838,0.124-0.838,0.553c0,0.582,1.402,0.791,1.783,0.944
		C35.391,32.68,36.4,32.957,36.4,34.253"/>
	<path fill="#1A171B" d="M16.053,41.712c0,1.21-0.943,1.829-2.268,1.829h-2.803c-0.219,0-0.277-0.104-0.277-0.275v-5.729
		c0-0.171,0.058-0.275,0.277-0.275h2.668c1.554,0,2.222,0.828,2.222,1.725c0,0.963-0.61,1.268-0.697,1.306
		C15.252,40.32,16.053,40.682,16.053,41.712 M14.537,41.568c0-0.447-0.333-0.581-0.791-0.581h-0.22
		c-0.219,0-0.276-0.104-0.276-0.276v-0.725c0-0.172,0.057-0.276,0.276-0.276h0.124c0.553,0,0.792-0.2,0.792-0.572
		c0-0.429-0.295-0.533-0.792-0.533h-1.448v3.583h1.602C14.271,42.188,14.537,41.997,14.537,41.568"/>
	<path fill="#1A171B" d="M21.705,41.53c0,1.506-1.43,2.154-2.563,2.154c-1.135,0-2.545-0.648-2.545-2.154v-2.249
		c0-1.506,1.411-2.154,2.545-2.154c1.134,0,2.563,0.648,2.563,2.154V41.53z M20.208,39.414c0-0.609-0.438-0.963-1.067-0.963
		c-0.62,0-1.059,0.354-1.059,0.963v1.982c0,0.61,0.438,0.963,1.059,0.963c0.628,0,1.067-0.353,1.067-0.963V39.414z"/>
	<path fill="#1A171B" d="M27.108,43.246c0.076,0.114,0.029,0.295-0.114,0.295h-1.086c-0.21,0-0.287-0.019-0.419-0.267l-0.944-1.696
		l-0.953,1.696c-0.124,0.248-0.21,0.267-0.419,0.267h-1.087c-0.143,0-0.19-0.181-0.114-0.295l1.696-2.917l-1.725-2.793
		c-0.057-0.104-0.019-0.267,0.143-0.267h1.125c0.182,0,0.258,0.077,0.381,0.276l0.953,1.535l0.944-1.535
		c0.133-0.199,0.2-0.276,0.391-0.276h1.115c0.162,0,0.209,0.162,0.143,0.267l-1.716,2.793L27.108,43.246z"/>
	<path fill="#1A171B" d="M31.161,2.81c1.034,0,2.031,0.233,2.736,0.639l20.382,11.754c1.459,0.842,2.738,3.056,2.738,4.74v23.512
		c0,1.684-1.278,3.898-2.737,4.741L33.917,59.953c-0.705,0.406-1.703,0.64-2.737,0.64c-1.035,0-2.033-0.233-2.739-0.641
		L8.079,48.194c-1.458-0.843-2.737-3.059-2.737-4.742V19.947c0-1.684,1.279-3.899,2.737-4.742L28.422,3.451
		C29.128,3.042,30.126,2.81,31.161,2.81 M31.161,0.468c-1.455,0-2.844,0.339-3.91,0.956L6.907,13.177
		C4.716,14.442,3,17.416,3,19.947v23.505c0,2.53,1.716,5.504,3.908,6.77l20.363,11.758c1.066,0.617,2.454,0.955,3.909,0.955
		c1.454,0,2.84-0.338,3.907-0.954L55.45,50.224c2.19-1.265,3.907-4.238,3.907-6.769V19.943c0-2.531-1.717-5.503-3.908-6.768
		L35.065,1.42C34,0.807,32.614,0.468,31.161,0.468"/>
</g>
</svg>
